<svg xmlns="http://www.w3.org/2000/svg" width="900" height="471" viewBox="0 0 900 471" role="img" aria-labelledby="title"><title id="title">Chiến lược nội dung</title><rect width="900" height="471" fill="#f8f8f7"/><g fill="none" stroke="#3c3c3a" stroke-width="3" stroke-linecap="round" stroke-linejoin="round" opacity=".9"><path d="M55 165V65M55 165h140M76 145l24-40 24 20 28-65 26 25"/><path d="M152 60l-6 18 16-6"/><path d="M65 35l17-9 15 30 15-36 13 18 14-22"/><circle cx="270" cy="72" r="26"/><path d="M270 72l24 10M270 72l-13 22M270 72l-17-20"/><rect x="245" y="122" width="120" height="19"/><path d="M284 122v19M328 122v19"/><circle cx="302" cy="348" r="48"/><circle cx="354" cy="348" r="48"/><circle cx="329" cy="302" r="48"/><path d="M455 315v19M500 315v19M545 315v19"/><circle cx="476" cy="295" r="21"/><circle cx="521" cy="295" r="21"/><circle cx="566" cy="295" r="21"/><circle cx="815" cy="95" r="43"/><path d="M815 95V63M815 95l-25 8"/><circle cx="805" cy="241" r="38"/><path d="M805 241l37-10M805 241l18 32"/><path d="M805 330l20-5 10 17 23-6 12 19 22-8M804 348l29 10 26-8 29 15"/><path d="M55 430l185-40M55 430l150-100"/></g><g fill="none" stroke="#6c6c68" stroke-width="3" opacity=".45"><circle cx="675" cy="430" r="115"/><path d="M465 420L850 245M555 430l265-50"/><path d="M610 420l90-170 60 220z"/></g><g><polygon points="665,340 700,250 720,358" fill="#008446"/><polygon points="681,362 720,358 706,456 684,462" fill="#3a3a3a"/><circle cx="671" cy="434" r="29" fill="none" stroke="#777" stroke-width="6"/></g><g transform="rotate(-12 570 225)" fill="#008446" font-family="Arial, Helvetica, sans-serif" font-weight="800"><text x="442" y="202" font-size="66">CONTENT</text><text x="392" y="272" font-size="61">STRATEGY</text></g><g fill="#3c3c3a" font-family="Arial, Helvetica, sans-serif" font-size="14"><text x="82" y="92" transform="rotate(-55 82 92)">SUCCESS</text><text x="145" y="27" font-size="20">€</text><text x="310" y="55">30%</text><text x="222" y="104">7%</text><text x="251" y="101">70%</text><text x="469" y="302" font-size="20">?</text><text x="514" y="302" font-size="20">!</text><text x="559" y="302" font-size="20">?</text><text x="754" y="182">25%</text><text x="822" y="246">75%</text><text x="80" y="410">solution</text></g><g fill="none" stroke="#3c3c3a" stroke-width="4" opacity=".85"><circle cx="348" cy="385" r="22"/><circle cx="403" cy="365" r="27"/><circle cx="455" cy="391" r="24"/><circle cx="348" cy="385" r="7"/><circle cx="403" cy="365" r="7"/><circle cx="455" cy="391" r="7"/></g></svg>